<?xml version="1.0" standalone="no"?>
<!DOCTYPE svg PUBLIC "-//W3C//DTD SVG 20010904//EN"
 "http://www.w3.org/TR/2001/REC-SVG-20010904/DTD/svg10.dtd">
<svg version="1.0" xmlns="http://www.w3.org/2000/svg"
 width="900.000000pt" height="900.000000pt" viewBox="0 0 900.000000 900.000000"
 preserveAspectRatio="xMidYMid meet">
<metadata>
Created by potrace 1.15, written by Peter Selinger 2001-2017
</metadata>
<g transform="translate(0.000000,900.000000) scale(0.100000,-0.100000)"
fill="#000000" stroke="none">
<path d="M0 4500 l0 -4500 4500 0 4500 0 0 4500 0 4500 -4500 0 -4500 0 0
-4500z m4965 1313 c4 -10 10 -90 12 -178 5 -129 2 -173 -11 -225 -34 -133 -99
-227 -207 -299 -34 -23 -64 -41 -68 -41 -3 0 -5 137 -4 305 1 247 4 310 15
327 12 17 219 123 249 127 4 1 10 -7 14 -16z m1067 -406 c449 -118 772 -449
862 -882 102 -491 -155 -1015 -609 -1240 -151 -75 -271 -105 -449 -112 -166
-7 -271 6 -412 52 -165 54 -302 133 -428 246 -129 116 -174 210 -143 294 49
129 89 234 100 258 12 28 12 28 62 -65 159 -295 366 -447 665 -488 252 -34
581 97 743 296 138 169 194 347 184 583 -7 186 -52 311 -165 459 -290 383
-837 443 -1209 133 -125 -105 -198 -225 -293 -486 -119 -326 -410 -1158 -410
-1172 0 -8 -13 -28 -29 -44 l-30 -29 -128 4 c-194 5 -198 9 -262 242 -17 62
-58 188 -90 280 -32 93 -114 335 -181 537 -67 203 -124 367 -126 364 -9 -9
-258 -790 -370 -1161 -81 -270 -72 -260 -237 -264 -133 -3 -168 7 -194 59 -7
13 -114 292 -237 619 -324 860 -511 1357 -535 1418 -33 84 -38 80 108 79 123
-2 131 -3 156 -27 38 -35 41 -42 158 -365 186 -509 494 -1324 511 -1350 9 -14
21 -25 26 -25 5 0 39 91 75 203 36 111 101 310 145 442 43 132 115 354 159
493 90 282 107 320 148 344 69 40 184 30 223 -19 11 -14 56 -137 99 -272 128
-398 248 -772 318 -991 36 -113 68 -211 72 -217 4 -7 56 123 115 290 60 166
153 424 206 572 116 324 124 342 194 450 166 255 434 442 726 506 125 28 348
21 482 -14z"/>
</g>
</svg>
